<?xml version="1.0" encoding="UTF-8"?>
<svg id="Layer_1" xmlns="http://www.w3.org/2000/svg" viewBox="0 0 1024 1024">
  <rect width="1024" height="1024" fill="black" />
  <path fill="white"
    d="m752,475.51v155.6c0,66.77-54.12,120.89-120.89,120.89h-222.84c-75.26,0-136.27-61.01-136.27-136.27v-98.93c0-33.14,26.86-60,60-60h1.13c32.51,0,58.87,26.36,58.87,58.87v29.19c0,48.13,39.02,87.14,87.14,87.14h66.93c47.46,0,85.93-38.47,85.93-85.93v-54.04c0-55.24-44.78-100.03-100.03-100.03h-139.97c-66.27,0-120-53.73-120-120h0s276.49,0,276.49,0c112.4,0,203.51,91.11,203.51,203.51Z" />
</svg>